<svg data-v-423bf9ae="" xmlns="http://www.w3.org/2000/svg" viewBox="0 0 1814.8519589965201 193" class="fontAboveSlogan"><!----><!----><!----><g data-v-423bf9ae="" id="ecf05cbb-f337-4b0b-869e-4d57597113e2" fill="white" transform="matrix(8.719824729119104,0,0,8.719824729119104,550.0386984008729,1.9511280051768338)"><path d="M3.65 0.64C4.41 0.64 5.57 0.73 5.57 2.80C5.57 4.90 4.58 5.19 3.77 5.19L3.07 5.19L3.07 0.64ZM7.95 7.78C7.95 5.40 5.78 5.24 4.87 5.24C5.15 5.24 7.29 4.96 7.29 2.83C7.29 0.45 5.56 0.43 3.61 0.43L0.52 0.43L0.52 0.55C1.13 0.55 1.33 1.36 1.33 2.23L1.33 8.50C1.33 9.45 1.12 10.16 0.52 10.16L0.52 10.29L3.61 10.29C6.03 10.29 7.95 10.22 7.95 7.78ZM6.15 7.71C6.15 10.11 4.93 10.08 3.65 10.08L3.07 10.08L3.07 5.40L3.77 5.40C4.76 5.40 6.15 5.47 6.15 7.71ZM10.68 6.72C10.68 5.17 11.41 3.91 12.22 3.91C12.94 3.91 13.68 4.82 13.68 6.72ZM14.71 8.51C14.41 9.18 13.36 9.58 12.54 9.45C11.54 9.30 10.77 8.55 10.68 6.93L15.13 6.93C15.13 4.73 14.11 3.70 12.28 3.70C10.44 3.70 9.11 5.08 9.11 7.10C9.11 8.85 10.37 10.42 12.15 10.42C13.92 10.42 14.73 9.30 14.91 8.61ZM22.69 10.08C22.19 9.95 22.12 9.56 22.12 8.79L22.12 5.88C22.12 4.19 21.38 3.70 20.27 3.70C19.39 3.70 18.34 4.34 18.03 5.18L18.03 3.70L15.85 4.17L15.85 4.38C16.42 4.62 16.55 4.79 16.55 5.28L16.55 8.81C16.55 9.52 16.53 9.93 16.00 10.08L16.00 10.29L18.61 10.29L18.61 10.08C18.12 9.94 18.03 9.58 18.03 8.81L18.03 5.73C18.09 5.19 18.72 4.55 19.35 4.55C20.16 4.55 20.64 5.11 20.64 5.92L20.64 8.79C20.64 9.51 20.61 9.93 20.08 10.08L20.08 10.29L22.69 10.29L22.69 10.08ZM31.01 0.25C31.51 0.07 32.10 0.25 32.51 0.66C33.12 1.43 33.45 2.91 31.61 4.12L30.60 2.63C29.93 1.64 30.28 0.50 31.01 0.25ZM29.47 8.82C28.38 7.46 28.92 6.08 29.71 5.52L30.41 5.07L32.69 8.36C32.00 9.83 30.23 9.76 29.47 8.82ZM36.97 8.67C36.86 9.18 36.37 9.34 35.88 9.34C35.88 9.34 35.15 9.34 34.72 8.69L33.61 7.10C33.96 6.19 34.72 5.96 34.72 6.26C34.73 6.48 34.82 6.65 34.99 6.80C35.34 7.10 35.85 7.04 36.13 6.71C36.46 6.36 36.39 5.84 36.05 5.57C35.80 5.36 35.41 5.33 35.11 5.40C34.75 5.49 34.03 5.75 33.50 6.93L31.74 4.31C33.87 2.80 33.25 1.15 32.70 0.50C32.27 0.01 31.61-0.24 30.67-0.07C29.11 0.20 28.22 1.95 29.54 3.77L30.28 4.89L29.58 5.31C28.48 5.95 26.64 7.49 28.04 9.41C29.44 11.35 32.31 10.16 32.84 8.57L33.63 9.72C34.19 10.54 35.57 10.42 35.57 10.42C36.34 10.33 37.18 9.80 37.18 8.67ZM42.77 0.43L42.77 0.64C43.85 0.64 43.86 1.01 43.86 3.64L43.86 7.83C43.86 10.86 42.73 11.98 41.52 12.42L41.58 12.63C43.86 12.29 45.63 11.05 45.63 7.74L45.63 1.93C45.63 1.04 46.16 0.64 46.79 0.64L46.79 0.43ZM48.87 6.72C48.87 5.17 49.60 3.91 50.41 3.91C51.13 3.91 51.87 4.82 51.87 6.72ZM52.91 8.51C52.60 9.18 51.55 9.58 50.74 9.45C49.73 9.30 48.96 8.55 48.87 6.93L53.33 6.93C53.33 4.73 52.30 3.70 50.47 3.70C48.64 3.70 47.31 5.08 47.31 7.10C47.31 8.85 48.57 10.42 50.34 10.42C52.11 10.42 52.92 9.30 53.10 8.61ZM58.06 3.75C57.61 3.86 56.92 4.16 56.29 5.21L56.29 3.70L54.10 4.17L54.10 4.38C54.67 4.59 54.80 4.80 54.80 5.28L54.80 8.78C54.80 9.51 54.77 9.91 54.24 10.08L54.24 10.29L56.87 10.29L56.87 10.08C56.36 9.94 56.29 9.56 56.29 8.78L56.29 5.57C56.77 4.69 57.53 4.45 57.50 4.65C57.48 4.86 57.57 5.08 57.74 5.26C58.11 5.61 58.67 5.60 59.02 5.25C59.37 4.90 59.37 4.33 59.02 3.98C58.77 3.74 58.34 3.68 58.06 3.75ZM63.62 3.75C63.17 3.86 62.48 4.16 61.85 5.21L61.85 3.70L59.65 4.17L59.65 4.38C60.23 4.59 60.35 4.80 60.35 5.28L60.35 8.78C60.35 9.51 60.33 9.91 59.79 10.08L59.79 10.29L62.43 10.29L62.43 10.08C61.92 9.94 61.85 9.56 61.85 8.78L61.85 5.57C62.33 4.69 63.08 4.45 63.06 4.65C63.04 4.86 63.13 5.08 63.29 5.26C63.67 5.61 64.23 5.60 64.58 5.25C64.93 4.90 64.93 4.33 64.58 3.98C64.33 3.74 63.90 3.68 63.62 3.75ZM69.57 3.82L69.57 4.02C71.19 4.00 70.29 6.19 70.29 6.19L69.45 8.40L67.84 4.96C67.84 4.96 67.42 4.02 68.24 4.02L68.24 3.82L65.14 3.82L65.14 4.02C65.35 4.03 65.83 4.06 66.08 4.65C66.08 4.65 67.44 7.53 68.71 10.37L68.12 11.98C67.91 12.54 67.59 12.68 67.54 12.50C67.48 12.29 67.34 12.10 67.12 12.00C66.68 11.80 66.18 12.00 65.98 12.43C65.80 12.87 65.98 13.37 66.42 13.57C66.71 13.71 67.14 13.62 67.37 13.44C67.61 13.26 68.00 12.89 68.33 12.01L70.49 6.23C71.34 4.10 71.90 4.02 72.30 4.02L72.30 3.82ZM73.99 5.03L74.76 5.03L75.17 0.43L73.57 0.43ZM81.14 9.69C81.83 8.71 81.42 7.53 80.16 6.75L78.75 5.87C77.53 5.10 77.78 3.91 78.90 3.91C80.43 3.91 80.85 5.11 80.99 5.77L81.20 5.77L81.20 4.13C81.20 4.13 80.51 3.70 78.90 3.70C77.49 3.70 77.01 4.45 77.01 4.45C76.34 5.43 76.68 6.41 78.04 7.28L79.45 8.13C80.51 8.83 80.51 10.21 79.28 10.21C77.55 10.21 77.15 8.72 77.00 7.98L76.79 7.98L76.79 9.81C76.79 9.81 77.59 10.42 79.28 10.42C80.64 10.42 81.14 9.69 81.14 9.69Z"></path></g><!----><!----><g data-v-423bf9ae="" id="a87e3e46-b96c-4597-bcc2-4b2b8d5f04bc" fill="white" transform="matrix(5.917159562968884,0,0,5.917159562968884,-4.142023726494585,110.5739650052325)"><path d="M9.70 6.80C9.48 6.19 9.16 5.68 8.74 5.25C8.32 4.82 7.83 4.48 7.25 4.26C6.68 4.03 6.02 3.92 5.32 3.92L1.89 3.92L0.70 3.92L0.70 4.19C0.70 4.34 0.80 4.42 0.98 4.44L1.12 4.44C1.19 4.44 1.29 4.45 1.43 4.45C1.57 4.45 1.72 4.47 1.89 4.47L1.89 13.26C1.72 13.26 1.57 13.27 1.43 13.27C1.29 13.27 1.19 13.29 1.12 13.29L0.98 13.29C0.80 13.30 0.70 13.38 0.70 13.54L0.70 13.82L1.89 13.82L5.32 13.82C6.02 13.82 6.68 13.71 7.25 13.48C7.83 13.26 8.32 12.92 8.74 12.49C9.16 12.05 9.48 11.54 9.70 10.92C9.93 10.30 10.05 9.63 10.05 8.86C10.05 8.11 9.93 7.42 9.70 6.80ZM9.02 10.72C8.82 11.27 8.57 11.72 8.22 12.10C7.87 12.47 7.45 12.75 6.96 12.95C6.47 13.15 5.92 13.24 5.32 13.24L2.60 13.24L2.60 4.49L5.32 4.49C5.92 4.49 6.47 4.59 6.96 4.79C7.45 4.98 7.87 5.26 8.22 5.64C8.57 6.02 8.82 6.47 9.02 7.01C9.21 7.56 9.31 8.18 9.31 8.86C9.31 9.56 9.21 10.18 9.02 10.72ZM19.53 3.92L18.34 3.92L18.34 4.19C18.34 4.34 18.44 4.42 18.62 4.44L18.76 4.44C18.83 4.44 18.93 4.45 19.07 4.45C19.21 4.45 19.36 4.47 19.53 4.47L19.53 13.26C19.36 13.26 19.21 13.27 19.07 13.27C18.93 13.27 18.83 13.29 18.76 13.29L18.62 13.29C18.44 13.30 18.35 13.38 18.35 13.54L18.35 13.82L19.53 13.82L25.47 13.82L25.47 13.22L25.47 11.76L25.12 11.76C24.92 11.76 24.84 11.89 24.82 12.11C24.82 12.14 24.81 12.19 24.81 12.29C24.81 12.39 24.81 12.53 24.79 12.74C24.78 12.95 24.77 13.09 24.77 13.22L20.24 13.22L20.24 9.09L24.19 9.09L24.19 8.51L20.24 8.51L20.24 4.51L24.77 4.51C24.79 5.12 24.82 5.50 24.82 5.63C24.84 5.85 24.92 5.96 25.12 5.96L25.47 5.96L25.47 4.51L25.47 3.92ZM42.04 13.29L41.94 13.29L41.76 13.29C41.68 13.29 41.59 13.27 41.51 13.27L38.54 9.53C38.46 9.42 38.35 9.32 38.23 9.25C38.67 9.21 39.06 9.11 39.41 8.96C39.76 8.81 40.04 8.61 40.29 8.37C40.53 8.13 40.73 7.85 40.85 7.55C40.98 7.24 41.05 6.89 41.05 6.51C41.05 5.66 40.77 5.03 40.21 4.58C39.65 4.14 38.79 3.92 37.65 3.92L35.24 3.92L34.06 3.92L34.06 4.19C34.06 4.34 34.15 4.42 34.33 4.44L34.47 4.44C34.54 4.44 34.64 4.45 34.78 4.45C34.92 4.45 35.07 4.47 35.24 4.47L35.24 13.26C35.07 13.26 34.92 13.27 34.78 13.27C34.64 13.27 34.54 13.29 34.47 13.29L34.33 13.29C34.15 13.30 34.05 13.38 34.05 13.54L34.05 13.82L35.24 13.82L35.95 13.82L37.13 13.82L37.13 13.54C37.13 13.38 37.03 13.30 36.85 13.29L36.71 13.29C36.64 13.29 36.54 13.27 36.40 13.27C36.26 13.27 36.12 13.26 35.95 13.26L35.95 9.34L37.13 9.34C37.32 9.34 37.46 9.35 37.55 9.39C37.63 9.44 37.72 9.52 37.80 9.62L40.98 13.64C41.03 13.71 41.08 13.75 41.13 13.78C41.19 13.80 41.26 13.82 41.33 13.82L41.40 13.82L41.94 13.82L42.31 13.82L42.31 13.54C42.31 13.38 42.22 13.30 42.04 13.29ZM37.55 8.81L35.95 8.81L35.95 4.48L37.65 4.48C38.53 4.48 39.20 4.66 39.66 5.00C40.12 5.33 40.35 5.87 40.35 6.57C40.35 6.92 40.29 7.21 40.17 7.49C40.04 7.77 39.84 7.99 39.61 8.19C39.37 8.39 39.07 8.55 38.72 8.65C38.37 8.75 37.98 8.81 37.55 8.81ZM58.51 13.29L58.41 13.29L58.23 13.29C58.14 13.29 58.06 13.27 57.97 13.27L55.01 9.53C54.92 9.42 54.81 9.32 54.70 9.25C55.13 9.21 55.52 9.11 55.87 8.96C56.22 8.81 56.50 8.61 56.76 8.37C56.99 8.13 57.19 7.85 57.32 7.55C57.44 7.24 57.51 6.89 57.51 6.51C57.51 5.66 57.23 5.03 56.67 4.58C56.11 4.14 55.26 3.92 54.11 3.92L51.70 3.92L50.53 3.92L50.53 4.19C50.53 4.34 50.61 4.42 50.79 4.44L50.93 4.44C51.00 4.44 51.10 4.45 51.24 4.45C51.38 4.45 51.53 4.47 51.70 4.47L51.70 13.26C51.53 13.26 51.38 13.27 51.24 13.27C51.10 13.27 51.00 13.29 50.93 13.29L50.79 13.29C50.61 13.30 50.51 13.38 50.51 13.54L50.51 13.82L51.70 13.82L52.42 13.82L53.59 13.82L53.59 13.54C53.59 13.38 53.49 13.30 53.31 13.29L53.17 13.29C53.10 13.29 53.00 13.27 52.86 13.27C52.72 13.27 52.58 13.26 52.42 13.26L52.42 9.34L53.59 9.34C53.79 9.34 53.93 9.35 54.01 9.39C54.10 9.44 54.18 9.52 54.26 9.62L57.44 13.64C57.50 13.71 57.54 13.75 57.60 13.78C57.65 13.80 57.72 13.82 57.79 13.82L57.86 13.82L58.41 13.82L58.77 13.82L58.77 13.54C58.77 13.38 58.69 13.30 58.51 13.29ZM54.01 8.81L52.42 8.81L52.42 4.48L54.11 4.48C54.99 4.48 55.66 4.66 56.13 5.00C56.59 5.33 56.81 5.87 56.81 6.57C56.81 6.92 56.76 7.21 56.63 7.49C56.50 7.77 56.31 7.99 56.07 8.19C55.83 8.39 55.54 8.55 55.19 8.65C54.84 8.75 54.45 8.81 54.01 8.81ZM69.79 4.44C69.97 4.42 70.06 4.34 70.06 4.19L70.06 3.91L68.88 3.91L68.17 3.91L66.98 3.91L66.98 4.19C66.98 4.34 67.07 4.42 67.26 4.44L67.40 4.44C67.47 4.44 67.56 4.45 67.70 4.45C67.84 4.45 68.00 4.47 68.17 4.47L68.17 13.26C68.00 13.26 67.84 13.27 67.70 13.27C67.56 13.27 67.47 13.29 67.40 13.29L67.26 13.29C67.07 13.30 66.98 13.38 66.98 13.54L66.98 13.82L68.17 13.82L68.88 13.82L70.06 13.82L70.06 13.54C70.06 13.38 69.97 13.30 69.79 13.29L69.65 13.29C69.58 13.29 69.48 13.27 69.34 13.27C69.20 13.27 69.05 13.26 68.88 13.26L68.88 4.47C69.05 4.47 69.20 4.45 69.34 4.45C69.48 4.45 69.58 4.44 69.65 4.44ZM85.92 3.92L85.72 3.92L78.43 3.92L78.22 3.92L78.12 3.92L78.12 5.96L78.47 5.96C78.67 5.96 78.75 5.85 78.76 5.63C78.76 5.53 78.79 5.17 78.82 4.52L81.72 4.52L81.72 13.26C81.55 13.26 81.41 13.27 81.27 13.27C81.13 13.27 81.02 13.29 80.95 13.29L80.82 13.29C80.64 13.30 80.54 13.38 80.54 13.54L80.54 13.82L81.72 13.82L82.43 13.82L83.62 13.82L83.62 13.54C83.62 13.38 83.52 13.30 83.34 13.29L83.20 13.29C83.13 13.29 83.03 13.27 82.89 13.27C82.75 13.27 82.60 13.26 82.43 13.26L82.43 4.52L85.32 4.52C85.36 5.24 85.37 5.60 85.37 5.63C85.39 5.85 85.48 5.96 85.68 5.96L86.02 5.96L86.02 3.92ZM96.94 4.44C97.12 4.42 97.20 4.34 97.20 4.19L97.20 3.91L96.03 3.91L95.31 3.91L94.12 3.91L94.12 4.19C94.12 4.34 94.22 4.42 94.40 4.44L94.54 4.44C94.61 4.44 94.71 4.45 94.85 4.45C94.99 4.45 95.14 4.47 95.31 4.47L95.31 13.26C95.14 13.26 94.99 13.27 94.85 13.27C94.71 13.27 94.61 13.29 94.54 13.29L94.40 13.29C94.22 13.30 94.12 13.38 94.12 13.54L94.12 13.82L95.31 13.82L96.03 13.82L97.20 13.82L97.20 13.54C97.20 13.38 97.12 13.30 96.94 13.29L96.80 13.29C96.73 13.29 96.63 13.27 96.49 13.27C96.35 13.27 96.19 13.26 96.03 13.26L96.03 4.47C96.19 4.47 96.35 4.45 96.49 4.45C96.63 4.45 96.73 4.44 96.80 4.44ZM106.74 3.92L105.55 3.92L105.55 4.19C105.55 4.34 105.64 4.42 105.83 4.44L105.97 4.44C106.04 4.44 106.13 4.45 106.27 4.45C106.41 4.45 106.57 4.47 106.74 4.47L106.74 13.26C106.57 13.26 106.41 13.27 106.27 13.27C106.13 13.27 106.04 13.29 105.97 13.29L105.83 13.29C105.64 13.30 105.56 13.38 105.56 13.54L105.56 13.82L106.74 13.82L112.67 13.82L112.67 13.22L112.67 11.76L112.32 11.76C112.13 11.76 112.04 11.89 112.03 12.11C112.03 12.14 112.01 12.19 112.01 12.29C112.01 12.39 112.01 12.53 112 12.74C111.99 12.95 111.97 13.09 111.97 13.22L107.45 13.22L107.45 9.09L111.40 9.09L111.40 8.51L107.45 8.51L107.45 4.51L111.97 4.51C112 5.12 112.03 5.50 112.03 5.63C112.04 5.85 112.13 5.96 112.32 5.96L112.67 5.96L112.67 4.51L112.67 3.92ZM130.09 3.92L129.46 3.92L128.24 3.92L128.24 4.19C128.24 4.34 128.34 4.42 128.52 4.44L128.66 4.44C128.73 4.44 128.84 4.45 128.98 4.45C129.12 4.45 129.29 4.47 129.46 4.47L129.46 12.22C129.46 12.35 129.46 12.49 129.47 12.63L123.06 4.05C123.02 3.99 122.99 3.95 122.95 3.93C122.91 3.92 122.86 3.91 122.79 3.91L122.44 3.91L121.25 3.91L121.25 4.19C121.25 4.34 121.35 4.42 121.53 4.44L121.67 4.44C121.74 4.44 121.84 4.45 121.98 4.45C122.12 4.45 122.28 4.47 122.44 4.47L122.44 13.26C122.28 13.26 122.12 13.27 121.98 13.27C121.84 13.27 121.74 13.29 121.67 13.29L121.53 13.29C121.35 13.30 121.25 13.38 121.25 13.54L121.25 13.82L122.44 13.82L123.06 13.82L124.28 13.82L124.28 13.54C124.28 13.38 124.18 13.30 124.00 13.29L123.86 13.29C123.79 13.29 123.66 13.27 123.52 13.27C123.38 13.27 123.23 13.26 123.06 13.26L123.06 5.49C123.06 5.36 123.06 5.22 123.05 5.08L129.49 13.68C129.56 13.78 129.63 13.82 129.74 13.82L130.09 13.82L130.09 4.47C130.26 4.47 130.40 4.45 130.54 4.45C130.68 4.45 130.79 4.44 130.86 4.44L130.98 4.44C131.17 4.42 131.26 4.34 131.26 4.19L131.26 3.92ZM148.30 6.80C148.08 6.19 147.76 5.68 147.34 5.25C146.92 4.82 146.43 4.48 145.85 4.26C145.28 4.03 144.62 3.92 143.92 3.92L140.49 3.92L139.30 3.92L139.30 4.19C139.30 4.34 139.40 4.42 139.58 4.44L139.72 4.44C139.79 4.44 139.89 4.45 140.03 4.45C140.17 4.45 140.32 4.47 140.49 4.47L140.49 13.26C140.32 13.26 140.17 13.27 140.03 13.27C139.89 13.27 139.79 13.29 139.72 13.29L139.58 13.29C139.40 13.30 139.30 13.38 139.30 13.54L139.30 13.82L140.49 13.82L143.92 13.82C144.62 13.82 145.28 13.71 145.85 13.48C146.43 13.26 146.92 12.92 147.34 12.49C147.76 12.05 148.08 11.54 148.30 10.92C148.53 10.30 148.65 9.63 148.65 8.86C148.65 8.11 148.53 7.42 148.30 6.80ZM147.62 10.72C147.42 11.27 147.17 11.72 146.82 12.10C146.47 12.47 146.05 12.75 145.56 12.95C145.07 13.15 144.52 13.24 143.92 13.24L141.20 13.24L141.20 4.49L143.92 4.49C144.52 4.49 145.07 4.59 145.56 4.79C146.05 4.98 146.47 5.26 146.82 5.64C147.17 6.02 147.42 6.47 147.62 7.01C147.81 7.56 147.91 8.18 147.91 8.86C147.91 9.56 147.81 10.18 147.62 10.72ZM166.21 8.86C166.21 8.11 166.08 7.41 165.86 6.79C165.63 6.17 165.31 5.64 164.89 5.19C164.47 4.75 163.98 4.40 163.41 4.16C162.83 3.92 162.18 3.79 161.48 3.79C160.78 3.79 160.15 3.92 159.57 4.16C159.00 4.40 158.49 4.75 158.07 5.19C157.65 5.64 157.33 6.17 157.11 6.79C156.88 7.41 156.76 8.11 156.76 8.86C156.76 9.63 156.88 10.33 157.11 10.95C157.33 11.56 157.65 12.10 158.07 12.54C158.49 12.99 159.00 13.33 159.57 13.57C160.15 13.80 160.78 13.93 161.48 13.93C162.18 13.93 162.83 13.80 163.41 13.57C163.98 13.33 164.47 12.99 164.89 12.54C165.31 12.10 165.63 11.56 165.86 10.95C166.08 10.33 166.21 9.63 166.21 8.86ZM165.45 8.86C165.45 9.56 165.37 10.18 165.17 10.72C164.98 11.27 164.71 11.75 164.36 12.12C164.01 12.50 163.59 12.81 163.10 13.01C162.61 13.20 162.08 13.30 161.48 13.30C160.89 13.30 160.36 13.20 159.87 13.01C159.38 12.81 158.96 12.50 158.61 12.12C158.26 11.75 157.98 11.27 157.78 10.72C157.58 10.18 157.50 9.56 157.50 8.86C157.50 8.18 157.58 7.55 157.78 7.00C157.98 6.45 158.26 5.98 158.61 5.60C158.96 5.22 159.38 4.91 159.87 4.72C160.36 4.52 160.89 4.41 161.48 4.41C162.08 4.41 162.61 4.52 163.10 4.72C163.59 4.91 164.01 5.22 164.36 5.60C164.71 5.98 164.98 6.45 165.17 7.00C165.37 7.55 165.45 8.18 165.45 8.86ZM191.97 9.52C191.55 9.11 190.95 8.86 190.16 8.75C190.48 8.67 190.76 8.55 191.02 8.40C191.27 8.25 191.49 8.08 191.66 7.87C191.83 7.66 191.97 7.43 192.05 7.20C192.14 6.96 192.19 6.71 192.19 6.44C192.19 6.05 192.11 5.68 191.98 5.38C191.86 5.07 191.65 4.80 191.38 4.58C191.11 4.37 190.78 4.20 190.36 4.09C189.94 3.98 189.45 3.92 188.89 3.92L186.05 3.92L184.86 3.92L184.86 4.19C184.86 4.34 184.95 4.42 185.14 4.44L185.28 4.44C185.35 4.44 185.44 4.45 185.58 4.45C185.72 4.45 185.88 4.47 186.05 4.47L186.05 13.26C185.88 13.26 185.72 13.27 185.58 13.27C185.44 13.27 185.35 13.29 185.28 13.29L185.14 13.29C184.95 13.30 184.87 13.38 184.87 13.54L184.87 13.82L186.05 13.82L189.25 13.82C189.78 13.82 190.25 13.76 190.67 13.64C191.09 13.51 191.44 13.34 191.72 13.10C192.00 12.87 192.22 12.59 192.37 12.25C192.53 11.91 192.60 11.54 192.60 11.12C192.60 10.46 192.39 9.93 191.97 9.52ZM186.76 4.48L188.89 4.48C189.77 4.48 190.43 4.66 190.85 5.00C191.27 5.35 191.48 5.84 191.48 6.51C191.48 6.76 191.44 7.03 191.34 7.27C191.24 7.50 191.09 7.71 190.88 7.91C190.67 8.11 190.40 8.26 190.08 8.37C189.76 8.48 189.36 8.55 188.90 8.55L186.76 8.55ZM191.21 12.68C190.76 13.06 190.11 13.24 189.24 13.24L186.76 13.24L186.76 9.07L189.25 9.07C189.67 9.07 190.04 9.11 190.36 9.21C190.68 9.31 190.96 9.45 191.18 9.62C191.41 9.80 191.58 10.00 191.70 10.25C191.81 10.50 191.88 10.79 191.88 11.10C191.88 11.79 191.66 12.31 191.21 12.68ZM210.08 13.22L209.62 13.17L205.84 3.91L205.13 3.91L201.33 13.17L200.89 13.22C200.70 13.23 200.62 13.33 200.62 13.50L200.62 13.82L201.07 13.82L201.36 13.82L201.61 13.82L201.71 13.82L203.03 13.82L203.03 13.50C203.03 13.31 202.92 13.23 202.71 13.22C202.69 13.22 202.66 13.20 202.62 13.20C202.58 13.20 202.52 13.19 202.43 13.19C202.33 13.19 202.20 13.19 202.06 13.17L203.04 10.75L203.11 10.57L207.84 10.57L207.91 10.75L208.89 13.17C208.75 13.19 208.64 13.19 208.54 13.19C208.45 13.19 208.38 13.20 208.33 13.20C208.29 13.20 208.26 13.22 208.25 13.22C208.04 13.23 207.93 13.31 207.93 13.50L207.93 13.82L209.24 13.82L209.34 13.82L209.61 13.82L209.89 13.82L210.35 13.82L210.35 13.50C210.35 13.33 210.27 13.23 210.08 13.22ZM205.28 5.22C205.31 5.14 205.35 5.04 205.38 4.94C205.41 4.84 205.45 4.75 205.48 4.63C205.51 4.75 205.55 4.84 205.58 4.94C205.60 5.04 205.65 5.12 205.67 5.21L207.63 10.04L203.34 10.04ZM226.58 13.29L226.48 13.29L226.30 13.29C226.21 13.29 226.13 13.27 226.04 13.27L223.08 9.53C222.99 9.42 222.88 9.32 222.77 9.25C223.20 9.21 223.59 9.11 223.94 8.96C224.29 8.81 224.57 8.61 224.83 8.37C225.06 8.13 225.26 7.85 225.39 7.55C225.51 7.24 225.58 6.89 225.58 6.51C225.58 5.66 225.30 5.03 224.74 4.58C224.18 4.14 223.33 3.92 222.18 3.92L219.77 3.92L218.60 3.92L218.60 4.19C218.60 4.34 218.68 4.42 218.86 4.44L219.00 4.44C219.07 4.44 219.17 4.45 219.31 4.45C219.45 4.45 219.60 4.47 219.77 4.47L219.77 13.26C219.60 13.26 219.45 13.27 219.31 13.27C219.17 13.27 219.07 13.29 219.00 13.29L218.86 13.29C218.68 13.30 218.58 13.38 218.58 13.54L218.58 13.82L219.77 13.82L220.49 13.82L221.66 13.82L221.66 13.54C221.66 13.38 221.56 13.30 221.38 13.29L221.24 13.29C221.17 13.29 221.07 13.27 220.93 13.27C220.79 13.27 220.65 13.26 220.49 13.26L220.49 9.34L221.66 9.34C221.86 9.34 222.00 9.35 222.08 9.39C222.17 9.44 222.25 9.52 222.33 9.62L225.51 13.64C225.57 13.71 225.61 13.75 225.67 13.78C225.72 13.80 225.79 13.82 225.86 13.82L225.93 13.82L226.48 13.82L226.84 13.82L226.84 13.54C226.84 13.38 226.76 13.30 226.58 13.29ZM222.08 8.81L220.49 8.81L220.49 4.48L222.18 4.48C223.06 4.48 223.73 4.66 224.20 5.00C224.66 5.33 224.88 5.87 224.88 6.57C224.88 6.92 224.83 7.21 224.70 7.49C224.57 7.77 224.38 7.99 224.14 8.19C223.90 8.39 223.61 8.55 223.26 8.65C222.91 8.75 222.52 8.81 222.08 8.81ZM243.04 13.29L242.94 13.29L242.76 13.29C242.68 13.29 242.59 13.27 242.51 13.27L239.54 9.53C239.46 9.42 239.34 9.32 239.23 9.25C239.67 9.21 240.06 9.11 240.41 8.96C240.76 8.81 241.04 8.61 241.29 8.37C241.53 8.13 241.72 7.85 241.85 7.55C241.98 7.24 242.05 6.89 242.05 6.51C242.05 5.66 241.77 5.03 241.21 4.58C240.65 4.14 239.79 3.92 238.64 3.92L236.24 3.92L235.06 3.92L235.06 4.19C235.06 4.34 235.14 4.42 235.33 4.44L235.47 4.44C235.54 4.44 235.63 4.45 235.77 4.45C235.91 4.45 236.07 4.47 236.24 4.47L236.24 13.26C236.07 13.26 235.91 13.27 235.77 13.27C235.63 13.27 235.54 13.29 235.47 13.29L235.33 13.29C235.14 13.30 235.05 13.38 235.05 13.54L235.05 13.82L236.24 13.82L236.95 13.82L238.13 13.82L238.13 13.54C238.13 13.38 238.03 13.30 237.85 13.29L237.71 13.29C237.64 13.29 237.54 13.27 237.40 13.27C237.26 13.27 237.12 13.26 236.95 13.26L236.95 9.34L238.13 9.34C238.32 9.34 238.46 9.35 238.55 9.39C238.63 9.44 238.71 9.52 238.80 9.62L241.98 13.64C242.03 13.71 242.07 13.75 242.13 13.78C242.19 13.80 242.26 13.82 242.33 13.82L242.40 13.82L242.94 13.82L243.31 13.82L243.31 13.54C243.31 13.38 243.22 13.30 243.04 13.29ZM238.55 8.81L236.95 8.81L236.95 4.48L238.64 4.48C239.53 4.48 240.20 4.66 240.66 5.00C241.12 5.33 241.35 5.87 241.35 6.57C241.35 6.92 241.29 7.21 241.16 7.49C241.04 7.77 240.84 7.99 240.60 8.19C240.37 8.39 240.07 8.55 239.72 8.65C239.37 8.75 238.98 8.81 238.55 8.81ZM252.70 3.92L251.51 3.92L251.51 4.19C251.51 4.34 251.61 4.42 251.79 4.44L251.93 4.44C252 4.44 252.10 4.45 252.24 4.45C252.38 4.45 252.53 4.47 252.70 4.47L252.70 13.26C252.53 13.26 252.38 13.27 252.24 13.27C252.10 13.27 252 13.29 251.93 13.29L251.79 13.29C251.61 13.30 251.52 13.38 251.52 13.54L251.52 13.82L252.70 13.82L258.64 13.82L258.64 13.22L258.64 11.76L258.29 11.76C258.09 11.76 258.01 11.89 257.99 12.11C257.99 12.14 257.98 12.19 257.98 12.29C257.98 12.39 257.98 12.53 257.96 12.74C257.95 12.95 257.94 13.09 257.94 13.22L253.41 13.22L253.41 9.09L257.36 9.09L257.36 8.51L253.41 8.51L253.41 4.51L257.94 4.51C257.96 5.12 257.99 5.50 257.99 5.63C258.01 5.85 258.09 5.96 258.29 5.96L258.64 5.96L258.64 4.51L258.64 3.92ZM275.21 13.29L275.11 13.29L274.93 13.29C274.85 13.29 274.76 13.27 274.68 13.27L271.71 9.53C271.63 9.42 271.52 9.32 271.40 9.25C271.84 9.21 272.23 9.11 272.58 8.96C272.93 8.81 273.21 8.61 273.46 8.37C273.70 8.13 273.90 7.85 274.02 7.55C274.15 7.24 274.22 6.89 274.22 6.51C274.22 5.66 273.94 5.03 273.38 4.58C272.82 4.14 271.96 3.92 270.82 3.92L268.41 3.92L267.23 3.92L267.23 4.19C267.23 4.34 267.32 4.42 267.50 4.44L267.64 4.44C267.71 4.44 267.81 4.45 267.95 4.45C268.09 4.45 268.24 4.47 268.41 4.47L268.41 13.26C268.24 13.26 268.09 13.27 267.95 13.27C267.81 13.27 267.71 13.29 267.64 13.29L267.50 13.29C267.32 13.30 267.22 13.38 267.22 13.54L267.22 13.82L268.41 13.82L269.12 13.82L270.30 13.82L270.30 13.54C270.30 13.38 270.20 13.30 270.02 13.29L269.88 13.29C269.81 13.29 269.71 13.27 269.57 13.27C269.43 13.27 269.29 13.26 269.12 13.26L269.12 9.34L270.30 9.34C270.49 9.34 270.63 9.35 270.72 9.39C270.80 9.44 270.89 9.52 270.97 9.62L274.15 13.64C274.20 13.71 274.25 13.75 274.30 13.78C274.36 13.80 274.43 13.82 274.50 13.82L274.57 13.82L275.11 13.82L275.48 13.82L275.48 13.54C275.48 13.38 275.39 13.30 275.21 13.29ZM270.72 8.81L269.12 8.81L269.12 4.48L270.82 4.48C271.70 4.48 272.37 4.66 272.83 5.00C273.29 5.33 273.52 5.87 273.52 6.57C273.52 6.92 273.46 7.21 273.34 7.49C273.21 7.77 273.01 7.99 272.78 8.19C272.54 8.39 272.24 8.55 271.89 8.65C271.54 8.75 271.15 8.81 270.72 8.81ZM292.98 13.22L292.52 13.17L288.74 3.91L288.02 3.91L284.23 13.17L283.78 13.22C283.60 13.23 283.51 13.33 283.51 13.50L283.51 13.82L283.96 13.82L284.26 13.82L284.51 13.82L284.61 13.82L285.92 13.82L285.92 13.50C285.92 13.31 285.81 13.23 285.60 13.22C285.59 13.22 285.56 13.20 285.52 13.20C285.47 13.20 285.42 13.19 285.32 13.19C285.22 13.19 285.10 13.19 284.96 13.17L285.94 10.75L286.01 10.57L290.74 10.57L290.81 10.75L291.79 13.17C291.65 13.19 291.54 13.19 291.44 13.19C291.34 13.19 291.27 13.20 291.23 13.20C291.19 13.20 291.16 13.22 291.14 13.22C290.93 13.23 290.82 13.31 290.82 13.50L290.82 13.82L292.14 13.82L292.24 13.82L292.50 13.82L292.78 13.82L293.24 13.82L293.24 13.50C293.24 13.33 293.16 13.23 292.98 13.22ZM288.18 5.22C288.20 5.14 288.25 5.04 288.27 4.94C288.30 4.84 288.34 4.75 288.37 4.63C288.40 4.75 288.44 4.84 288.47 4.94C288.50 5.04 288.54 5.12 288.57 5.21L290.53 10.04L286.23 10.04ZM307.20 9.91C307.06 9.65 306.87 9.39 306.63 9.21C306.39 9.03 306.14 8.88 305.84 8.75C305.55 8.62 305.23 8.51 304.92 8.41C304.61 8.32 304.30 8.20 304.01 8.11C303.72 7.99 303.45 7.87 303.21 7.71C302.97 7.56 302.79 7.38 302.65 7.15C302.51 6.93 302.43 6.65 302.43 6.31C302.43 6.06 302.48 5.82 302.58 5.59C302.68 5.35 302.82 5.15 303.00 4.97C303.18 4.79 303.41 4.65 303.69 4.55C303.97 4.45 304.28 4.40 304.64 4.40C305.31 4.40 305.93 4.51 306.49 4.75C306.53 5.54 306.56 5.99 306.56 6.06C306.57 6.29 306.66 6.41 306.85 6.41L307.19 6.41L307.19 4.38C306.31 4.00 305.47 3.81 304.64 3.81C304.18 3.81 303.77 3.88 303.41 4.02C303.04 4.16 302.75 4.34 302.51 4.58C302.27 4.82 302.08 5.08 301.95 5.39C301.83 5.70 301.77 6.02 301.77 6.36C301.77 6.78 301.84 7.14 301.98 7.42C302.12 7.70 302.32 7.92 302.55 8.12C302.79 8.32 303.04 8.46 303.34 8.58C303.63 8.71 303.95 8.82 304.26 8.92C304.57 9.02 304.86 9.11 305.17 9.21C305.47 9.31 305.73 9.45 305.97 9.60C306.21 9.76 306.39 9.94 306.53 10.16C306.67 10.39 306.74 10.68 306.74 11.03C306.74 11.35 306.68 11.66 306.57 11.94C306.46 12.22 306.31 12.46 306.10 12.67C305.89 12.88 305.62 13.05 305.31 13.16C305.00 13.29 304.65 13.33 304.26 13.33C303.48 13.33 302.82 13.20 302.29 12.95C302.27 12.75 302.27 12.54 302.26 12.32C302.25 12.10 302.25 11.91 302.23 11.76C302.22 11.61 302.22 11.52 302.22 11.51C302.20 11.28 302.11 11.17 301.91 11.17L301.57 11.17L301.57 13.02L301.57 13.20L301.57 13.38C302.43 13.75 303.31 13.93 304.23 13.93C304.74 13.93 305.19 13.85 305.58 13.69C305.97 13.54 306.31 13.31 306.57 13.05C306.84 12.78 307.06 12.46 307.20 12.10C307.34 11.73 307.41 11.34 307.41 10.92C307.41 10.51 307.34 10.18 307.20 9.91Z"></path></g></svg>